<mxfile host="Electron" agent="Mozilla/5.0 (Macintosh; Intel Mac OS X 10_15_7) AppleWebKit/537.36 (KHTML, like Gecko) draw.io/24.7.5 Chrome/126.0.6478.183 Electron/31.3.0 Safari/537.36" version="24.7.5" pages="4">
  <diagram id="-NZCvJOlYVIJsy2IGn_z" name="Layer">
    <mxGraphModel dx="2019" dy="502" grid="1" gridSize="10" guides="1" tooltips="1" connect="1" arrows="1" fold="1" page="0" pageScale="1" pageWidth="850" pageHeight="1100" math="0" shadow="0">
      <root>
        <mxCell id="0" />
        <mxCell id="1" parent="0" />
        <mxCell id="nsQGHK24FbcnjRh7nMKh-1" value="width" style="text;html=1;align=center;verticalAlign=middle;whiteSpace=wrap;rounded=0;fontFamily=Architects Daughter;fontSource=https%3A%2F%2Ffonts.googleapis.com%2Fcss%3Ffamily%3DArchitects%2BDaughter;" vertex="1" parent="1">
          <mxGeometry x="-1090" y="39" width="840" height="30" as="geometry" />
        </mxCell>
        <mxCell id="RVvHofBdQBIMrhMscmG6-1" value="" style="group" vertex="1" connectable="0" parent="1">
          <mxGeometry x="-870" y="39" width="400" height="243" as="geometry" />
        </mxCell>
        <mxCell id="2GxuKcNO7kwAiyH6a_4Z-120" value="Gateway Services" style="shape=label;whiteSpace=wrap;html=1;fixedSize=1;rounded=0;strokeColor=#6c8ebf;align=center;verticalAlign=middle;fontFamily=Helvetica;fontSize=20;fillColor=#dae8fc;" parent="RVvHofBdQBIMrhMscmG6-1" vertex="1">
          <mxGeometry y="122" width="400" height="60" as="geometry" />
        </mxCell>
        <mxCell id="2GxuKcNO7kwAiyH6a_4Z-122" value="Frequency" style="shape=label;whiteSpace=wrap;html=1;hachureGap=4;fontFamily=Helvetica;fontSize=20;fillColor=#d5e8d4;strokeColor=#82b366;rounded=0;" parent="RVvHofBdQBIMrhMscmG6-1" vertex="1">
          <mxGeometry y="183" width="269" height="60" as="geometry" />
        </mxCell>
        <mxCell id="2GxuKcNO7kwAiyH6a_4Z-124" value="IPFS" style="shape=label;whiteSpace=wrap;html=1;hachureGap=4;fontFamily=Helvetica;fontSize=20;fillColor=#ffe6cc;strokeColor=#d79b00;rounded=0;" parent="RVvHofBdQBIMrhMscmG6-1" vertex="1">
          <mxGeometry x="270" y="183" width="130" height="60" as="geometry" />
        </mxCell>
        <mxCell id="2GxuKcNO7kwAiyH6a_4Z-127" value="Custom Frontend Apps" style="rounded=0;whiteSpace=wrap;html=1;fontSize=20;fillColor=#e1d5e7;strokeColor=#9673a6;fontFamily=Helvetica;" parent="RVvHofBdQBIMrhMscmG6-1" vertex="1">
          <mxGeometry width="269" height="60" as="geometry" />
        </mxCell>
        <mxCell id="2GxuKcNO7kwAiyH6a_4Z-128" value="Sign In With Frequency" style="shape=label;whiteSpace=wrap;html=1;fixedSize=1;rounded=0;strokeColor=#23445d;align=center;verticalAlign=middle;fontFamily=Helvetica;fontSize=20;fillColor=#bac8d3;" parent="RVvHofBdQBIMrhMscmG6-1" vertex="1">
          <mxGeometry x="270" width="130" height="60" as="geometry" />
        </mxCell>
        <mxCell id="2GxuKcNO7kwAiyH6a_4Z-125" value="Custom Backend Services" style="rounded=0;whiteSpace=wrap;html=1;fontSize=20;fillColor=#e1d5e7;strokeColor=#9673a6;fontFamily=Helvetica;" parent="RVvHofBdQBIMrhMscmG6-1" vertex="1">
          <mxGeometry y="61" width="400" height="60" as="geometry" />
        </mxCell>
      </root>
    </mxGraphModel>
  </diagram>
  <diagram name="TopLevelServices" id="gtB03pixiBjuQGk1qhSI">
    <mxGraphModel dx="2234" dy="879" grid="1" gridSize="10" guides="1" tooltips="1" connect="1" arrows="1" fold="1" page="0" pageScale="1" pageWidth="850" pageHeight="1100" math="0" shadow="0">
      <root>
        <mxCell id="wYInSimEy5yir4IWvBSN-0" />
        <mxCell id="wYInSimEy5yir4IWvBSN-1" parent="wYInSimEy5yir4IWvBSN-0" />
        <mxCell id="wYInSimEy5yir4IWvBSN-2" value="" style="rounded=1;whiteSpace=wrap;html=1;" parent="wYInSimEy5yir4IWvBSN-1" vertex="1">
          <mxGeometry x="-740" y="40" width="440" height="520" as="geometry" />
        </mxCell>
        <mxCell id="wYInSimEy5yir4IWvBSN-3" value="&lt;font style=&quot;font-size: 20px;&quot;&gt;Gateway&lt;/font&gt;" style="whiteSpace=wrap;html=1;fontFamily=Helvetica;align=center;verticalAlign=bottom;rounded=1;spacingTop=0;dashed=1;fontSize=20;fillColor=none;strokeColor=#6c8ebf;fontColor=#6C8EBF;" parent="wYInSimEy5yir4IWvBSN-1" vertex="1">
          <mxGeometry x="-579" y="248" width="190" height="280" as="geometry" />
        </mxCell>
        <mxCell id="wYInSimEy5yir4IWvBSN-4" style="edgeStyle=orthogonalEdgeStyle;shape=connector;rounded=0;hachureGap=4;orthogonalLoop=1;jettySize=auto;html=1;labelBackgroundColor=default;strokeColor=#6c8ebf;strokeWidth=3;align=center;verticalAlign=middle;fontFamily=Helvetica;fontSize=16;fontColor=default;endArrow=classic;fillColor=#dae8fc;" parent="wYInSimEy5yir4IWvBSN-1" source="wYInSimEy5yir4IWvBSN-34" target="wYInSimEy5yir4IWvBSN-10" edge="1">
          <mxGeometry relative="1" as="geometry">
            <mxPoint x="-480" y="555" as="targetPoint" />
            <Array as="points" />
          </mxGeometry>
        </mxCell>
        <mxCell id="wYInSimEy5yir4IWvBSN-5" style="edgeStyle=orthogonalEdgeStyle;shape=connector;rounded=0;hachureGap=4;orthogonalLoop=1;jettySize=auto;html=1;labelBackgroundColor=default;strokeColor=#6c8ebf;strokeWidth=3;align=center;verticalAlign=middle;fontFamily=Helvetica;fontSize=16;fontColor=default;endArrow=classic;fillColor=#dae8fc;" parent="wYInSimEy5yir4IWvBSN-1" source="wYInSimEy5yir4IWvBSN-35" target="wYInSimEy5yir4IWvBSN-10" edge="1">
          <mxGeometry relative="1" as="geometry">
            <mxPoint x="-480" y="555" as="targetPoint" />
            <Array as="points" />
          </mxGeometry>
        </mxCell>
        <mxCell id="wYInSimEy5yir4IWvBSN-6" style="edgeStyle=orthogonalEdgeStyle;shape=connector;rounded=0;hachureGap=4;orthogonalLoop=1;jettySize=auto;html=1;labelBackgroundColor=default;strokeColor=#6c8ebf;strokeWidth=3;align=center;verticalAlign=middle;fontFamily=Helvetica;fontSize=16;fontColor=default;endArrow=classic;fillColor=#dae8fc;" parent="wYInSimEy5yir4IWvBSN-1" source="wYInSimEy5yir4IWvBSN-36" target="wYInSimEy5yir4IWvBSN-10" edge="1">
          <mxGeometry relative="1" as="geometry">
            <mxPoint x="-480" y="555" as="targetPoint" />
            <Array as="points" />
          </mxGeometry>
        </mxCell>
        <mxCell id="wYInSimEy5yir4IWvBSN-7" value="" style="rounded=1;whiteSpace=wrap;html=1;" parent="wYInSimEy5yir4IWvBSN-1" vertex="1">
          <mxGeometry x="-260" y="40" width="320" height="520" as="geometry" />
        </mxCell>
        <mxCell id="wYInSimEy5yir4IWvBSN-8" style="edgeStyle=orthogonalEdgeStyle;rounded=0;hachureGap=4;orthogonalLoop=1;jettySize=auto;html=1;entryX=0;entryY=0.5;entryDx=0;entryDy=0;fontFamily=Helvetica;fontSize=16;exitX=1;exitY=0.5;exitDx=0;exitDy=0;fillColor=#e1d5e7;strokeColor=#9673a6;strokeWidth=3;" parent="wYInSimEy5yir4IWvBSN-1" source="wYInSimEy5yir4IWvBSN-10" target="wYInSimEy5yir4IWvBSN-18" edge="1">
          <mxGeometry relative="1" as="geometry" />
        </mxCell>
        <mxCell id="wYInSimEy5yir4IWvBSN-9" style="edgeStyle=orthogonalEdgeStyle;shape=connector;rounded=0;hachureGap=4;orthogonalLoop=1;jettySize=auto;html=1;labelBackgroundColor=default;strokeColor=#9673a6;strokeWidth=3;align=center;verticalAlign=middle;fontFamily=Helvetica;fontSize=16;fontColor=default;endArrow=classic;fillColor=#e1d5e7;" parent="wYInSimEy5yir4IWvBSN-1" source="wYInSimEy5yir4IWvBSN-10" target="wYInSimEy5yir4IWvBSN-37" edge="1">
          <mxGeometry relative="1" as="geometry" />
        </mxCell>
        <mxCell id="wYInSimEy5yir4IWvBSN-10" value="Custom Backend&lt;br&gt;Service(s)" style="rounded=1;whiteSpace=wrap;html=1;fontSize=20;fillColor=#e1d5e7;strokeColor=#9673a6;fontFamily=Helvetica;" parent="wYInSimEy5yir4IWvBSN-1" vertex="1">
          <mxGeometry x="-605" y="120" width="240" height="100" as="geometry" />
        </mxCell>
        <mxCell id="wYInSimEy5yir4IWvBSN-11" style="edgeStyle=orthogonalEdgeStyle;shape=connector;rounded=0;hachureGap=4;orthogonalLoop=1;jettySize=auto;html=1;labelBackgroundColor=default;strokeColor=#6c8ebf;strokeWidth=3;align=center;verticalAlign=middle;fontFamily=Helvetica;fontSize=16;fontColor=default;endArrow=classic;fillColor=#dae8fc;" parent="wYInSimEy5yir4IWvBSN-1" source="wYInSimEy5yir4IWvBSN-33" target="wYInSimEy5yir4IWvBSN-10" edge="1">
          <mxGeometry relative="1" as="geometry">
            <mxPoint x="-480" y="555" as="targetPoint" />
            <Array as="points" />
          </mxGeometry>
        </mxCell>
        <mxCell id="wYInSimEy5yir4IWvBSN-12" style="edgeStyle=orthogonalEdgeStyle;shape=connector;rounded=0;hachureGap=4;orthogonalLoop=1;jettySize=auto;html=1;exitX=0;exitY=0.5;exitDx=0;exitDy=0;labelBackgroundColor=default;strokeColor=#d6b656;strokeWidth=3;align=center;verticalAlign=middle;fontFamily=Helvetica;fontSize=16;fontColor=default;endArrow=classic;fillColor=#fff2cc;" parent="wYInSimEy5yir4IWvBSN-1" source="wYInSimEy5yir4IWvBSN-33" target="wYInSimEy5yir4IWvBSN-26" edge="1">
          <mxGeometry relative="1" as="geometry" />
        </mxCell>
        <mxCell id="wYInSimEy5yir4IWvBSN-13" style="edgeStyle=orthogonalEdgeStyle;shape=connector;rounded=0;hachureGap=4;orthogonalLoop=1;jettySize=auto;html=1;exitX=1;exitY=0.5;exitDx=0;exitDy=0;labelBackgroundColor=default;strokeColor=#82b366;strokeWidth=3;align=center;verticalAlign=middle;fontFamily=Helvetica;fontSize=16;fontColor=default;endArrow=classic;fillColor=#d5e8d4;" parent="wYInSimEy5yir4IWvBSN-1" source="wYInSimEy5yir4IWvBSN-33" target="wYInSimEy5yir4IWvBSN-27" edge="1">
          <mxGeometry relative="1" as="geometry">
            <Array as="points">
              <mxPoint x="-360" y="285" />
              <mxPoint x="-360" y="320" />
            </Array>
          </mxGeometry>
        </mxCell>
        <mxCell id="wYInSimEy5yir4IWvBSN-14" value="&lt;h1 style=&quot;margin-top: 0px;&quot;&gt;Internet&lt;/h1&gt;" style="text;html=1;whiteSpace=wrap;overflow=hidden;rounded=0;fontFamily=Helvetica;fontSize=12;fontColor=default;align=center;" parent="wYInSimEy5yir4IWvBSN-1" vertex="1">
          <mxGeometry x="-260" y="40" width="320" height="100" as="geometry" />
        </mxCell>
        <mxCell id="wYInSimEy5yir4IWvBSN-15" value="&lt;h1 style=&quot;margin-top: 0px;&quot;&gt;Example Application&lt;br&gt;Infrastructure&lt;/h1&gt;" style="text;html=1;whiteSpace=wrap;overflow=hidden;rounded=0;fontFamily=Helvetica;fontSize=12;fontColor=default;align=center;" parent="wYInSimEy5yir4IWvBSN-1" vertex="1">
          <mxGeometry x="-740" y="40" width="440" height="70" as="geometry" />
        </mxCell>
        <mxCell id="wYInSimEy5yir4IWvBSN-16" value="Frequency&lt;br&gt;Network" style="ellipse;shape=cloud;whiteSpace=wrap;html=1;hachureGap=4;fontFamily=Helvetica;fontSize=20;fillColor=#d5e8d4;strokeColor=#82b366;" parent="wYInSimEy5yir4IWvBSN-1" vertex="1">
          <mxGeometry x="-170" y="268" width="210" height="130" as="geometry" />
        </mxCell>
        <mxCell id="wYInSimEy5yir4IWvBSN-17" value="IPFS&lt;br&gt;Network" style="ellipse;shape=cloud;whiteSpace=wrap;html=1;hachureGap=4;fontFamily=Helvetica;fontSize=20;fillColor=#ffe6cc;strokeColor=#d79b00;" parent="wYInSimEy5yir4IWvBSN-1" vertex="1">
          <mxGeometry x="-170" y="408" width="210" height="130" as="geometry" />
        </mxCell>
        <mxCell id="wYInSimEy5yir4IWvBSN-18" value="Custom Frontend Application(s)" style="rounded=1;whiteSpace=wrap;html=1;fontSize=20;fillColor=#e1d5e7;strokeColor=#9673a6;" parent="wYInSimEy5yir4IWvBSN-1" vertex="1">
          <mxGeometry x="-210" y="120" width="240" height="100" as="geometry" />
        </mxCell>
        <mxCell id="wYInSimEy5yir4IWvBSN-19" style="edgeStyle=orthogonalEdgeStyle;shape=connector;rounded=0;hachureGap=4;orthogonalLoop=1;jettySize=auto;html=1;exitX=0;exitY=0.5;exitDx=0;exitDy=0;labelBackgroundColor=default;strokeColor=#d6b656;strokeWidth=3;align=center;verticalAlign=middle;fontFamily=Helvetica;fontSize=16;fontColor=default;endArrow=classic;fillColor=#fff2cc;" parent="wYInSimEy5yir4IWvBSN-1" source="wYInSimEy5yir4IWvBSN-34" target="wYInSimEy5yir4IWvBSN-26" edge="1">
          <mxGeometry relative="1" as="geometry" />
        </mxCell>
        <mxCell id="wYInSimEy5yir4IWvBSN-20" style="edgeStyle=orthogonalEdgeStyle;shape=connector;rounded=0;hachureGap=4;orthogonalLoop=1;jettySize=auto;html=1;labelBackgroundColor=default;strokeColor=#82b366;strokeWidth=3;align=center;verticalAlign=middle;fontFamily=Helvetica;fontSize=16;fontColor=default;endArrow=classic;fillColor=#d5e8d4;exitX=1;exitY=0.25;exitDx=0;exitDy=0;" parent="wYInSimEy5yir4IWvBSN-1" source="wYInSimEy5yir4IWvBSN-34" target="wYInSimEy5yir4IWvBSN-27" edge="1">
          <mxGeometry relative="1" as="geometry">
            <Array as="points">
              <mxPoint x="-360" y="333" />
              <mxPoint x="-360" y="320" />
            </Array>
          </mxGeometry>
        </mxCell>
        <mxCell id="wYInSimEy5yir4IWvBSN-21" style="edgeStyle=orthogonalEdgeStyle;shape=connector;rounded=0;hachureGap=4;orthogonalLoop=1;jettySize=auto;html=1;exitX=1;exitY=0.75;exitDx=0;exitDy=0;entryX=0;entryY=0.5;entryDx=0;entryDy=0;labelBackgroundColor=default;strokeColor=#d79b00;strokeWidth=3;align=center;verticalAlign=middle;fontFamily=Helvetica;fontSize=16;fontColor=default;endArrow=classic;fillColor=#ffe6cc;" parent="wYInSimEy5yir4IWvBSN-1" source="wYInSimEy5yir4IWvBSN-34" target="wYInSimEy5yir4IWvBSN-29" edge="1">
          <mxGeometry relative="1" as="geometry">
            <Array as="points">
              <mxPoint x="-370" y="356" />
              <mxPoint x="-370" y="460" />
            </Array>
          </mxGeometry>
        </mxCell>
        <mxCell id="wYInSimEy5yir4IWvBSN-22" style="edgeStyle=orthogonalEdgeStyle;shape=connector;rounded=0;hachureGap=4;orthogonalLoop=1;jettySize=auto;html=1;entryX=0;entryY=0.5;entryDx=0;entryDy=0;labelBackgroundColor=default;strokeColor=#82b366;strokeWidth=3;align=center;verticalAlign=middle;fontFamily=Helvetica;fontSize=16;fontColor=default;endArrow=classic;fillColor=#d5e8d4;exitX=1;exitY=0.25;exitDx=0;exitDy=0;" parent="wYInSimEy5yir4IWvBSN-1" source="wYInSimEy5yir4IWvBSN-35" target="wYInSimEy5yir4IWvBSN-27" edge="1">
          <mxGeometry relative="1" as="geometry">
            <Array as="points">
              <mxPoint x="-360" y="393" />
              <mxPoint x="-360" y="320" />
            </Array>
          </mxGeometry>
        </mxCell>
        <mxCell id="wYInSimEy5yir4IWvBSN-23" style="edgeStyle=orthogonalEdgeStyle;shape=connector;rounded=0;hachureGap=4;orthogonalLoop=1;jettySize=auto;html=1;exitX=1;exitY=0.75;exitDx=0;exitDy=0;labelBackgroundColor=default;strokeColor=#d79b00;strokeWidth=3;align=center;verticalAlign=middle;fontFamily=Helvetica;fontSize=16;fontColor=default;endArrow=classic;fillColor=#ffe6cc;" parent="wYInSimEy5yir4IWvBSN-1" source="wYInSimEy5yir4IWvBSN-35" target="wYInSimEy5yir4IWvBSN-29" edge="1">
          <mxGeometry relative="1" as="geometry">
            <Array as="points">
              <mxPoint x="-370" y="416" />
              <mxPoint x="-370" y="460" />
            </Array>
          </mxGeometry>
        </mxCell>
        <mxCell id="wYInSimEy5yir4IWvBSN-24" style="edgeStyle=orthogonalEdgeStyle;shape=connector;rounded=0;hachureGap=4;orthogonalLoop=1;jettySize=auto;html=1;entryX=0;entryY=0.5;entryDx=0;entryDy=0;labelBackgroundColor=default;strokeColor=#82b366;strokeWidth=3;align=center;verticalAlign=middle;fontFamily=Helvetica;fontSize=16;fontColor=default;endArrow=classic;fillColor=#d5e8d4;exitX=1;exitY=0.25;exitDx=0;exitDy=0;" parent="wYInSimEy5yir4IWvBSN-1" source="wYInSimEy5yir4IWvBSN-36" target="wYInSimEy5yir4IWvBSN-27" edge="1">
          <mxGeometry relative="1" as="geometry">
            <Array as="points">
              <mxPoint x="-360" y="453" />
              <mxPoint x="-360" y="320" />
            </Array>
          </mxGeometry>
        </mxCell>
        <mxCell id="wYInSimEy5yir4IWvBSN-25" style="edgeStyle=orthogonalEdgeStyle;shape=connector;rounded=0;hachureGap=4;orthogonalLoop=1;jettySize=auto;html=1;exitX=1;exitY=0.75;exitDx=0;exitDy=0;labelBackgroundColor=default;strokeColor=#d79b00;strokeWidth=3;align=center;verticalAlign=middle;fontFamily=Helvetica;fontSize=16;fontColor=default;endArrow=classic;fillColor=#ffe6cc;" parent="wYInSimEy5yir4IWvBSN-1" source="wYInSimEy5yir4IWvBSN-36" target="wYInSimEy5yir4IWvBSN-29" edge="1">
          <mxGeometry relative="1" as="geometry">
            <Array as="points">
              <mxPoint x="-370" y="476" />
              <mxPoint x="-370" y="460" />
            </Array>
          </mxGeometry>
        </mxCell>
        <mxCell id="wYInSimEy5yir4IWvBSN-26" value="Redis&lt;br&gt;(Queues)" style="shape=cylinder3;whiteSpace=wrap;html=1;boundedLbl=1;backgroundOutline=1;size=15;hachureGap=4;fontFamily=Helvetica;fontSize=20;fillColor=#fff2cc;strokeColor=#d6b656;" parent="wYInSimEy5yir4IWvBSN-1" vertex="1">
          <mxGeometry x="-720" y="260" width="86.25" height="115" as="geometry" />
        </mxCell>
        <mxCell id="wYInSimEy5yir4IWvBSN-27" value="Frequency&lt;br&gt;Node" style="shape=label;whiteSpace=wrap;html=1;hachureGap=4;fontFamily=Helvetica;fontSize=20;fillColor=#d5e8d4;strokeColor=#82b366;rounded=1;" parent="wYInSimEy5yir4IWvBSN-1" vertex="1">
          <mxGeometry x="-335" y="280" width="110" height="80" as="geometry" />
        </mxCell>
        <mxCell id="wYInSimEy5yir4IWvBSN-28" style="edgeStyle=orthogonalEdgeStyle;shape=connector;rounded=0;hachureGap=4;orthogonalLoop=1;jettySize=auto;html=1;entryX=0.07;entryY=0.4;entryDx=0;entryDy=0;entryPerimeter=0;labelBackgroundColor=default;strokeColor=#82b366;strokeWidth=3;align=center;verticalAlign=middle;fontFamily=Helvetica;fontSize=16;fontColor=default;endArrow=classic;fillColor=#d5e8d4;" parent="wYInSimEy5yir4IWvBSN-1" source="wYInSimEy5yir4IWvBSN-27" target="wYInSimEy5yir4IWvBSN-16" edge="1">
          <mxGeometry relative="1" as="geometry" />
        </mxCell>
        <mxCell id="wYInSimEy5yir4IWvBSN-29" value="IPFS&lt;br&gt;Node" style="shape=label;whiteSpace=wrap;html=1;hachureGap=4;fontFamily=Helvetica;fontSize=20;fillColor=#ffe6cc;strokeColor=#d79b00;rounded=1;" parent="wYInSimEy5yir4IWvBSN-1" vertex="1">
          <mxGeometry x="-335" y="420" width="110" height="80" as="geometry" />
        </mxCell>
        <mxCell id="wYInSimEy5yir4IWvBSN-30" style="edgeStyle=orthogonalEdgeStyle;shape=connector;rounded=0;hachureGap=4;orthogonalLoop=1;jettySize=auto;html=1;entryX=0.07;entryY=0.4;entryDx=0;entryDy=0;entryPerimeter=0;labelBackgroundColor=default;strokeColor=#d79b00;strokeWidth=3;align=center;verticalAlign=middle;fontFamily=Helvetica;fontSize=16;fontColor=default;endArrow=classic;fillColor=#ffe6cc;" parent="wYInSimEy5yir4IWvBSN-1" source="wYInSimEy5yir4IWvBSN-29" target="wYInSimEy5yir4IWvBSN-17" edge="1">
          <mxGeometry relative="1" as="geometry" />
        </mxCell>
        <mxCell id="wYInSimEy5yir4IWvBSN-31" style="edgeStyle=orthogonalEdgeStyle;shape=connector;rounded=0;hachureGap=4;orthogonalLoop=1;jettySize=auto;html=1;entryX=1;entryY=0.5;entryDx=0;entryDy=0;entryPerimeter=0;labelBackgroundColor=default;strokeColor=#d6b656;strokeWidth=3;align=center;verticalAlign=middle;fontFamily=Helvetica;fontSize=16;fontColor=default;endArrow=classic;fillColor=#fff2cc;" parent="wYInSimEy5yir4IWvBSN-1" source="wYInSimEy5yir4IWvBSN-35" target="wYInSimEy5yir4IWvBSN-26" edge="1">
          <mxGeometry relative="1" as="geometry" />
        </mxCell>
        <mxCell id="wYInSimEy5yir4IWvBSN-32" style="edgeStyle=orthogonalEdgeStyle;shape=connector;rounded=0;hachureGap=4;orthogonalLoop=1;jettySize=auto;html=1;entryX=1;entryY=0.5;entryDx=0;entryDy=0;entryPerimeter=0;labelBackgroundColor=default;strokeColor=#d6b656;strokeWidth=3;align=center;verticalAlign=middle;fontFamily=Helvetica;fontSize=16;fontColor=default;endArrow=classic;fillColor=#fff2cc;" parent="wYInSimEy5yir4IWvBSN-1" source="wYInSimEy5yir4IWvBSN-36" target="wYInSimEy5yir4IWvBSN-26" edge="1">
          <mxGeometry relative="1" as="geometry" />
        </mxCell>
        <mxCell id="wYInSimEy5yir4IWvBSN-33" value="Graph Service" style="shape=parallelogram;perimeter=parallelogramPerimeter;whiteSpace=wrap;html=1;fixedSize=1;rounded=1;strokeColor=#6c8ebf;align=center;verticalAlign=middle;fontFamily=Helvetica;fontSize=16;fillColor=#dae8fc;" parent="wYInSimEy5yir4IWvBSN-1" vertex="1">
          <mxGeometry x="-575" y="260" width="180" height="50" as="geometry" />
        </mxCell>
        <mxCell id="wYInSimEy5yir4IWvBSN-34" value="Account Service" style="shape=parallelogram;perimeter=parallelogramPerimeter;whiteSpace=wrap;html=1;fixedSize=1;rounded=1;strokeColor=#6c8ebf;align=center;verticalAlign=middle;fontFamily=Helvetica;fontSize=16;fillColor=#dae8fc;" parent="wYInSimEy5yir4IWvBSN-1" vertex="1">
          <mxGeometry x="-575" y="320" width="180" height="50" as="geometry" />
        </mxCell>
        <mxCell id="wYInSimEy5yir4IWvBSN-35" value="Content Publishing Service" style="shape=parallelogram;perimeter=parallelogramPerimeter;whiteSpace=wrap;html=1;fixedSize=1;rounded=1;strokeColor=#6c8ebf;align=center;verticalAlign=middle;fontFamily=Helvetica;fontSize=16;fillColor=#dae8fc;" parent="wYInSimEy5yir4IWvBSN-1" vertex="1">
          <mxGeometry x="-575" y="380" width="180" height="50" as="geometry" />
        </mxCell>
        <mxCell id="wYInSimEy5yir4IWvBSN-36" value="Content Watcher&lt;br&gt;Service" style="shape=parallelogram;perimeter=parallelogramPerimeter;whiteSpace=wrap;html=1;fixedSize=1;rounded=1;strokeColor=#6c8ebf;align=center;verticalAlign=middle;fontFamily=Helvetica;fontSize=16;fillColor=#dae8fc;" parent="wYInSimEy5yir4IWvBSN-1" vertex="1">
          <mxGeometry x="-575" y="440" width="180" height="50" as="geometry" />
        </mxCell>
        <mxCell id="wYInSimEy5yir4IWvBSN-37" value="Db" style="shape=cylinder3;whiteSpace=wrap;html=1;boundedLbl=1;backgroundOutline=1;size=15;hachureGap=4;fontFamily=Helvetica;fontSize=20;fillColor=#e1d5e7;strokeColor=#9673a6;" parent="wYInSimEy5yir4IWvBSN-1" vertex="1">
          <mxGeometry x="-720" y="112.5" width="86.25" height="115" as="geometry" />
        </mxCell>
      </root>
    </mxGraphModel>
  </diagram>
  <diagram id="nV4izT-KVWIpuaD8qBVV" name="Pieces">
    <mxGraphModel dx="2189" dy="606" grid="0" gridSize="10" guides="1" tooltips="1" connect="1" arrows="1" fold="1" page="0" pageScale="1" pageWidth="850" pageHeight="1100" math="0" shadow="0">
      <root>
        <mxCell id="0" />
        <mxCell id="1" parent="0" />
        <mxCell id="-fDjjig-S9mQQfeenBrs-1" value="Account (Identity)" style="shape=label;whiteSpace=wrap;html=1;fixedSize=1;rounded=0;strokeColor=none;align=center;verticalAlign=middle;fontFamily=B612;fontSize=20;fillColor=#FF5752;fontColor=#ffffff;" vertex="1" parent="1">
          <mxGeometry x="-810" y="160" width="120" height="60" as="geometry" />
        </mxCell>
        <mxCell id="-fDjjig-S9mQQfeenBrs-2" value="Frequency" style="shape=label;whiteSpace=wrap;html=1;hachureGap=4;fontFamily=B612;fontSize=20;fillColor=#000000;strokeColor=none;rounded=0;fontColor=#ffffff;" vertex="1" parent="1">
          <mxGeometry x="-810" y="220" width="300" height="60" as="geometry" />
        </mxCell>
        <mxCell id="-fDjjig-S9mQQfeenBrs-4" value="Frequency Access / SiwF" style="shape=label;whiteSpace=wrap;html=1;fixedSize=1;rounded=0;strokeColor=none;align=center;verticalAlign=middle;fontFamily=B612;fontSize=20;fillColor=#CE8EED;fontColor=#ffffff;" vertex="1" parent="1">
          <mxGeometry x="-530" y="40" width="280" height="60" as="geometry" />
        </mxCell>
        <mxCell id="-fDjjig-S9mQQfeenBrs-6" value="Graph" style="shape=label;whiteSpace=wrap;html=1;fixedSize=1;rounded=0;strokeColor=none;align=center;verticalAlign=middle;fontFamily=B612;fontSize=20;fillColor=#FF34FF;fontColor=#ffffff;" vertex="1" parent="1">
          <mxGeometry x="-690" y="160" width="120" height="60" as="geometry" />
        </mxCell>
        <mxCell id="-fDjjig-S9mQQfeenBrs-7" value="Content" style="shape=label;whiteSpace=wrap;html=1;fixedSize=1;rounded=0;strokeColor=none;align=center;verticalAlign=middle;fontFamily=B612;fontSize=20;fillColor=#34D48A;fontColor=#ffffff;" vertex="1" parent="1">
          <mxGeometry x="-570" y="160" width="190" height="60" as="geometry" />
        </mxCell>
        <mxCell id="WmXhAz5HHJfwmpUg-tpj-1" value="IPFS" style="shape=label;whiteSpace=wrap;html=1;hachureGap=4;fontFamily=Helvetica;fontSize=20;fillColor=#4D4D4D;strokeColor=none;rounded=0;fontColor=#ffffff;" vertex="1" parent="1">
          <mxGeometry x="-510" y="220" width="130" height="60" as="geometry" />
        </mxCell>
        <mxCell id="WmXhAz5HHJfwmpUg-tpj-2" value="Social App Template (Example)" style="shape=label;whiteSpace=wrap;html=1;fixedSize=1;rounded=0;strokeColor=none;align=center;verticalAlign=middle;fontFamily=B612;fontSize=20;fillColor=#FFB83A;fontColor=#ffffff;" vertex="1" parent="1">
          <mxGeometry x="-380" y="100" width="130" height="180" as="geometry" />
        </mxCell>
        <mxCell id="-fDjjig-S9mQQfeenBrs-3" value="Custom Frontend Apps" style="rounded=0;whiteSpace=wrap;html=1;fontSize=20;fillColor=#CCCCCC;strokeColor=default;fontFamily=B612;fontColor=#ffffff;fontStyle=2" vertex="1" parent="1">
          <mxGeometry x="-810" y="40" width="280" height="60" as="geometry" />
        </mxCell>
        <mxCell id="-fDjjig-S9mQQfeenBrs-5" value="Custom Backend Services" style="rounded=0;whiteSpace=wrap;html=1;fontSize=20;fillColor=#CCCCCC;strokeColor=default;fontFamily=B612;fontColor=#ffffff;fontStyle=2" vertex="1" parent="1">
          <mxGeometry x="-810" y="100" width="430" height="60" as="geometry" />
        </mxCell>
      </root>
    </mxGraphModel>
  </diagram>
  <diagram id="8zxVgCdzVpt45mGDEeSV" name="Fundimentals">
    <mxGraphModel dx="2234" dy="879" grid="1" gridSize="10" guides="1" tooltips="1" connect="1" arrows="1" fold="1" page="0" pageScale="1" pageWidth="850" pageHeight="1100" math="0" shadow="0">
      <root>
        <mxCell id="0" />
        <mxCell id="1" parent="0" />
        <mxCell id="p9RjljCkP65rwSFFR6jn-6" value="" style="rounded=1;whiteSpace=wrap;html=1;" vertex="1" parent="1">
          <mxGeometry x="-330" y="50" width="450" height="510" as="geometry" />
        </mxCell>
        <mxCell id="p9RjljCkP65rwSFFR6jn-13" value="&lt;h1 style=&quot;margin-top: 0px;&quot;&gt;Global State&lt;/h1&gt;" style="text;html=1;whiteSpace=wrap;overflow=hidden;rounded=0;fontFamily=Helvetica;fontSize=12;fontColor=default;align=center;" vertex="1" parent="1">
          <mxGeometry x="-525" y="50" width="840" height="100" as="geometry" />
        </mxCell>
        <mxCell id="p9RjljCkP65rwSFFR6jn-39" value="User Controlled Delegation" style="rounded=1;whiteSpace=wrap;html=1;fontSize=20;fillColor=#d5e8d4;strokeColor=#82b366;fontFamily=Helvetica;verticalAlign=top;spacingTop=5;" vertex="1" parent="1">
          <mxGeometry x="-212.5" y="110" width="230" height="165" as="geometry" />
        </mxCell>
        <mxCell id="p9RjljCkP65rwSFFR6jn-46" style="edgeStyle=orthogonalEdgeStyle;rounded=0;hachureGap=4;orthogonalLoop=1;jettySize=auto;html=1;fontFamily=Architects Daughter;fontSource=https%3A%2F%2Ffonts.googleapis.com%2Fcss%3Ffamily%3DArchitects%2BDaughter;strokeWidth=3;" edge="1" parent="1" source="p9RjljCkP65rwSFFR6jn-37" target="p9RjljCkP65rwSFFR6jn-38">
          <mxGeometry relative="1" as="geometry" />
        </mxCell>
        <mxCell id="p9RjljCkP65rwSFFR6jn-58" style="edgeStyle=orthogonalEdgeStyle;shape=connector;rounded=0;hachureGap=4;orthogonalLoop=1;jettySize=auto;html=1;strokeColor=#666666;strokeWidth=3;align=center;verticalAlign=middle;fontFamily=Helvetica;fontSize=20;fontColor=default;labelBackgroundColor=default;endArrow=classic;exitX=1;exitY=0.5;exitDx=0;exitDy=0;fillColor=#f5f5f5;dashed=1;dashPattern=1 1;" edge="1" parent="1" source="p9RjljCkP65rwSFFR6jn-37" target="p9RjljCkP65rwSFFR6jn-54">
          <mxGeometry relative="1" as="geometry">
            <Array as="points">
              <mxPoint x="280" y="215" />
            </Array>
          </mxGeometry>
        </mxCell>
        <mxCell id="p9RjljCkP65rwSFFR6jn-60" value="Delegations with other providers" style="edgeLabel;html=1;align=center;verticalAlign=middle;resizable=0;points=[];sketch=1;hachureGap=4;jiggle=2;curveFitting=1;fontFamily=Helvetica;fontSource=https%3A%2F%2Ffonts.googleapis.com%2Fcss%3Ffamily%3DArchitects%2BDaughter;fontSize=14;fontColor=default;labelBackgroundColor=default;" vertex="1" connectable="0" parent="p9RjljCkP65rwSFFR6jn-58">
          <mxGeometry x="0.1939" y="-2" relative="1" as="geometry">
            <mxPoint x="-48" y="15" as="offset" />
          </mxGeometry>
        </mxCell>
        <mxCell id="p9RjljCkP65rwSFFR6jn-37" value="User" style="rounded=1;whiteSpace=wrap;html=1;fontSize=20;fillColor=#dae8fc;strokeColor=#6c8ebf;fontFamily=Helvetica;shape=ellipse;perimeter=ellipsePerimeter;" vertex="1" parent="1">
          <mxGeometry x="150" y="165" width="110" height="100" as="geometry" />
        </mxCell>
        <mxCell id="p9RjljCkP65rwSFFR6jn-38" value="User Account (MSA)" style="shape=label;whiteSpace=wrap;html=1;hachureGap=4;fontFamily=Helvetica;fontSize=20;fillColor=#dae8fc;strokeColor=#6c8ebf;rounded=1;" vertex="1" parent="1">
          <mxGeometry x="-87.5" y="175" width="160" height="80" as="geometry" />
        </mxCell>
        <mxCell id="p9RjljCkP65rwSFFR6jn-45" style="edgeStyle=orthogonalEdgeStyle;rounded=0;hachureGap=4;orthogonalLoop=1;jettySize=auto;html=1;exitX=0.75;exitY=1;exitDx=0;exitDy=0;entryX=0;entryY=0.5;entryDx=0;entryDy=0;fontFamily=Architects Daughter;fontSource=https%3A%2F%2Ffonts.googleapis.com%2Fcss%3Ffamily%3DArchitects%2BDaughter;strokeWidth=3;" edge="1" parent="1" source="p9RjljCkP65rwSFFR6jn-40" target="p9RjljCkP65rwSFFR6jn-42">
          <mxGeometry relative="1" as="geometry" />
        </mxCell>
        <mxCell id="p9RjljCkP65rwSFFR6jn-47" value="Requests Access to" style="edgeLabel;html=1;align=center;verticalAlign=middle;resizable=0;points=[];sketch=1;hachureGap=4;jiggle=2;curveFitting=1;fontFamily=Helvetica;fontSize=14;" vertex="1" connectable="0" parent="p9RjljCkP65rwSFFR6jn-45">
          <mxGeometry x="-0.29" y="-1" relative="1" as="geometry">
            <mxPoint y="-10" as="offset" />
          </mxGeometry>
        </mxCell>
        <mxCell id="p9RjljCkP65rwSFFR6jn-52" value="" style="edgeStyle=orthogonalEdgeStyle;rounded=0;hachureGap=4;orthogonalLoop=1;jettySize=auto;html=1;exitX=0.25;exitY=1;exitDx=0;exitDy=0;entryX=0;entryY=0.25;entryDx=0;entryDy=0;fontFamily=Helvetica;strokeWidth=3;fontSize=20;" edge="1" parent="1" source="p9RjljCkP65rwSFFR6jn-40" target="p9RjljCkP65rwSFFR6jn-44">
          <mxGeometry relative="1" as="geometry">
            <mxPoint as="offset" />
          </mxGeometry>
        </mxCell>
        <mxCell id="p9RjljCkP65rwSFFR6jn-53" value="Publishes with permission" style="edgeLabel;html=1;align=center;verticalAlign=middle;resizable=0;points=[];sketch=1;hachureGap=4;jiggle=2;curveFitting=1;fontFamily=Helvetica;fontSource=https%3A%2F%2Ffonts.googleapis.com%2Fcss%3Ffamily%3DArchitects%2BDaughter;fontSize=14;fontColor=default;labelBackgroundColor=default;" vertex="1" connectable="0" parent="p9RjljCkP65rwSFFR6jn-52">
          <mxGeometry x="-0.0391" y="-1" relative="1" as="geometry">
            <mxPoint y="21" as="offset" />
          </mxGeometry>
        </mxCell>
        <mxCell id="p9RjljCkP65rwSFFR6jn-40" value="Provider" style="rounded=1;whiteSpace=wrap;html=1;fontSize=20;fillColor=#e1d5e7;strokeColor=#9673a6;fontFamily=Helvetica;" vertex="1" parent="1">
          <mxGeometry x="-280" y="175" width="160" height="80" as="geometry" />
        </mxCell>
        <mxCell id="p9RjljCkP65rwSFFR6jn-42" value="Graph" style="shape=label;whiteSpace=wrap;html=1;hachureGap=4;fontFamily=Helvetica;fontSize=20;fillColor=#dae8fc;strokeColor=#6c8ebf;rounded=1;" vertex="1" parent="1">
          <mxGeometry x="-90" y="346" width="160" height="50" as="geometry" />
        </mxCell>
        <mxCell id="p9RjljCkP65rwSFFR6jn-57" style="edgeStyle=orthogonalEdgeStyle;shape=connector;rounded=0;hachureGap=4;orthogonalLoop=1;jettySize=auto;html=1;exitX=0;exitY=0.75;exitDx=0;exitDy=0;strokeColor=default;strokeWidth=3;align=center;verticalAlign=middle;fontFamily=Helvetica;fontSize=20;fontColor=default;labelBackgroundColor=default;endArrow=classic;" edge="1" parent="1" source="p9RjljCkP65rwSFFR6jn-44" target="p9RjljCkP65rwSFFR6jn-49">
          <mxGeometry relative="1" as="geometry" />
        </mxCell>
        <mxCell id="p9RjljCkP65rwSFFR6jn-59" value="Shared Public Content" style="edgeLabel;html=1;align=center;verticalAlign=middle;resizable=0;points=[];sketch=1;hachureGap=4;jiggle=2;curveFitting=1;fontFamily=Helvetica;fontSource=https%3A%2F%2Ffonts.googleapis.com%2Fcss%3Ffamily%3DArchitects%2BDaughter;fontSize=14;fontColor=default;labelBackgroundColor=default;" vertex="1" connectable="0" parent="p9RjljCkP65rwSFFR6jn-57">
          <mxGeometry x="0.5418" relative="1" as="geometry">
            <mxPoint y="22" as="offset" />
          </mxGeometry>
        </mxCell>
        <mxCell id="p9RjljCkP65rwSFFR6jn-44" value="Content" style="rounded=1;whiteSpace=wrap;html=1;fontSize=20;fillColor=#d5e8d4;strokeColor=#82b366;fontFamily=Helvetica;verticalAlign=middle;spacingTop=0;" vertex="1" parent="1">
          <mxGeometry x="-215" y="446" width="230" height="80" as="geometry" />
        </mxCell>
        <mxCell id="p9RjljCkP65rwSFFR6jn-51" style="edgeStyle=orthogonalEdgeStyle;rounded=0;hachureGap=4;orthogonalLoop=1;jettySize=auto;html=1;fontFamily=Architects Daughter;fontSource=https%3A%2F%2Ffonts.googleapis.com%2Fcss%3Ffamily%3DArchitects%2BDaughter;strokeWidth=3;" edge="1" parent="1" source="p9RjljCkP65rwSFFR6jn-49" target="p9RjljCkP65rwSFFR6jn-40">
          <mxGeometry relative="1" as="geometry">
            <mxPoint x="-400" y="215" as="sourcePoint" />
          </mxGeometry>
        </mxCell>
        <mxCell id="p9RjljCkP65rwSFFR6jn-49" value="Your Application" style="rounded=1;whiteSpace=wrap;html=1;fontSize=20;fillColor=#e1d5e7;strokeColor=#9673a6;fontFamily=Helvetica;" vertex="1" parent="1">
          <mxGeometry x="-520" y="175" width="160" height="80" as="geometry" />
        </mxCell>
        <mxCell id="p9RjljCkP65rwSFFR6jn-55" style="edgeStyle=orthogonalEdgeStyle;shape=connector;rounded=0;hachureGap=4;orthogonalLoop=1;jettySize=auto;html=1;strokeColor=#666666;strokeWidth=3;align=center;verticalAlign=middle;fontFamily=Helvetica;fontSize=20;fontColor=default;labelBackgroundColor=default;endArrow=classic;dashed=1;dashPattern=1 1;exitX=0;exitY=0.25;exitDx=0;exitDy=0;fillColor=#f5f5f5;" edge="1" parent="1" source="p9RjljCkP65rwSFFR6jn-54" target="p9RjljCkP65rwSFFR6jn-42">
          <mxGeometry relative="1" as="geometry" />
        </mxCell>
        <mxCell id="p9RjljCkP65rwSFFR6jn-56" style="edgeStyle=orthogonalEdgeStyle;shape=connector;rounded=0;hachureGap=4;orthogonalLoop=1;jettySize=auto;html=1;exitX=0;exitY=0.75;exitDx=0;exitDy=0;strokeColor=#666666;strokeWidth=3;align=center;verticalAlign=middle;fontFamily=Helvetica;fontSize=20;fontColor=default;labelBackgroundColor=default;endArrow=classic;dashed=1;dashPattern=1 1;fillColor=#f5f5f5;" edge="1" parent="1" source="p9RjljCkP65rwSFFR6jn-54" target="p9RjljCkP65rwSFFR6jn-44">
          <mxGeometry relative="1" as="geometry" />
        </mxCell>
        <mxCell id="p9RjljCkP65rwSFFR6jn-54" value="Other&lt;br&gt;Interoperable&lt;br&gt;Applications" style="rounded=1;whiteSpace=wrap;html=1;fontSize=20;fillColor=#f5f5f5;strokeColor=#666666;fontFamily=Helvetica;fontColor=#333333;" vertex="1" parent="1">
          <mxGeometry x="150" y="313" width="180" height="230" as="geometry" />
        </mxCell>
      </root>
    </mxGraphModel>
  </diagram>
</mxfile>
